<svg xmlns="http://www.w3.org/2000/svg" viewBox="0 0 24 24" fill="white" stroke="black" stroke-width="2" stroke-linecap="round" stroke-linejoin="round">
  <path d="M2 22h20"/>
  <path d="M4 22V8h4v14"/>
  <path d="M16 8h4v14"/>
  <path d="M8 12h8v10H8z"/>
  <path d="M12 22v-6"/>
  <path d="M10 16h4"/>
  <path d="M6 10h.01"/>
  <path d="M18 10h.01"/>
  <path d="M6 14h2"/>
  <path d="M16 14h2"/>
  <path d="M4 8V4h4v4"/>
  <path d="M16 8V4h4v4"/>
  <path d="M8 12V8h8v4"/>
  <path d="M8 4h8"/>
  <path d="M4 4h4"/>
  <path d="M16 4h4"/>
  <path d="M12 4v-2h4v2"/>
  <path d="M14 3h2"/>
</svg>